<svg width="24" height="24" viewBox="0 0 24 24" fill="none" xmlns="http://www.w3.org/2000/svg">
<g clip-path="url(#clip0_1568_717)">
<path d="M12 16V16.01" stroke="white" stroke-width="2" stroke-linecap="round" stroke-linejoin="round"/>
<path d="M12 12.9998C12.4498 13.0011 12.8868 12.8508 13.2407 12.5732C13.5945 12.2956 13.8444 11.9068 13.95 11.4696C14.0557 11.0324 14.0109 10.5724 13.8229 10.1638C13.6349 9.75524 13.3147 9.42195 12.914 9.21776C12.5162 9.01397 12.0611 8.95079 11.6228 9.03848C11.1845 9.12618 10.7888 9.3596 10.5 9.70076" stroke="white" stroke-width="2" stroke-linecap="round" stroke-linejoin="round"/>
<path d="M9.99953 20.7771C9.12914 20.5797 8.29321 20.2531 7.51953 19.8081" stroke="white" stroke-width="2" stroke-linecap="round" stroke-linejoin="round"/>
<path d="M14 3.22314C15.9882 3.67722 17.7632 4.79284 19.0347 6.38735C20.3061 7.98187 20.9984 9.9608 20.9984 12.0001C20.9984 14.0395 20.3061 16.0184 19.0347 17.6129C17.7632 19.2075 15.9882 20.3231 14 20.7771" stroke="white" stroke-width="2" stroke-linecap="round" stroke-linejoin="round"/>
<path d="M4.57856 17.093C4.03307 16.3004 3.61876 15.4252 3.35156 14.501" stroke="white" stroke-width="2" stroke-linecap="round" stroke-linejoin="round"/>
<path d="M3.12402 10.5C3.28402 9.55002 3.59202 8.65002 4.02402 7.82502L4.19302 7.52002" stroke="white" stroke-width="2" stroke-linecap="round" stroke-linejoin="round"/>
<path d="M6.90723 4.57914C7.84288 3.93504 8.89255 3.47486 10.0002 3.22314" stroke="white" stroke-width="2" stroke-linecap="round" stroke-linejoin="round"/>
</g>
<defs>
<clipPath id="clip0_1568_717">
<rect width="24" height="24" fill="white"/>
</clipPath>
</defs>
</svg>
