<svg width="101" height="100" viewBox="0 0 101 100" fill="none" xmlns="http://www.w3.org/2000/svg">
<rect width="101" height="100" fill="black"/>
<g id="Sign in page">
<rect width="1440" height="1024" transform="translate(-297 -322)" fill="white"/>
<g id="Frame 1171275762">
<g id="ep:success-filled">
<g id="Vector" filter="url(#filter0_d_332_45)">
<path d="M50.5 6.25C62.1032 6.25 73.2312 10.8594 81.4359 19.0641C89.6406 27.2688 94.25 38.3968 94.25 50C94.25 61.6032 89.6406 72.7312 81.4359 80.9359C73.2312 89.1406 62.1032 93.75 50.5 93.75C38.8968 93.75 27.7688 89.1406 19.5641 80.9359C11.3594 72.7312 6.75 61.6032 6.75 50C6.75 38.3968 11.3594 27.2688 19.5641 19.0641C27.7688 10.8594 38.8968 6.25 50.5 6.25ZM45.05 58.6312L35.3312 48.9062C34.9828 48.5578 34.5692 48.2815 34.114 48.0929C33.6588 47.9043 33.1709 47.8073 32.6781 47.8073C32.1854 47.8073 31.6975 47.9043 31.2423 48.0929C30.787 48.2815 30.3734 48.5578 30.025 48.9062C29.3213 49.6099 28.926 50.5643 28.926 51.5594C28.926 52.5545 29.3213 53.5088 30.025 54.2125L42.4 66.5875C42.7474 66.9377 43.1607 67.2156 43.6161 67.4053C44.0714 67.595 44.5598 67.6926 45.0531 67.6926C45.5464 67.6926 46.0348 67.595 46.4902 67.4053C46.9455 67.2156 47.3588 66.9377 47.7062 66.5875L73.3313 40.9562C73.6843 40.6093 73.9652 40.1958 74.1577 39.7398C74.3502 39.2837 74.4505 38.7941 74.4528 38.299C74.4551 37.804 74.3593 37.3135 74.1711 36.8556C73.9829 36.3978 73.7058 35.9818 73.356 35.6315C73.0062 35.2813 72.5905 35.0038 72.1329 34.815C71.6753 34.6262 71.1848 34.5299 70.6898 34.5316C70.1948 34.5333 69.705 34.6331 69.2487 34.825C68.7924 35.017 68.3786 35.2973 68.0312 35.65L45.05 58.6312Z" fill="#1E3A5F"/>
</g>
</g>
</g>
</g>
<defs>
<filter id="filter0_d_332_45" x="2.75" y="4.25" width="95.5" height="95.5" filterUnits="userSpaceOnUse" color-interpolation-filters="sRGB">
<feFlood flood-opacity="0" result="BackgroundImageFix"/>
<feColorMatrix in="SourceAlpha" type="matrix" values="0 0 0 0 0 0 0 0 0 0 0 0 0 0 0 0 0 0 127 0" result="hardAlpha"/>
<feOffset dy="2"/>
<feGaussianBlur stdDeviation="2"/>
<feComposite in2="hardAlpha" operator="out"/>
<feColorMatrix type="matrix" values="0 0 0 0 0 0 0 0 0 0 0 0 0 0 0 0 0 0 0.25 0"/>
<feBlend mode="normal" in2="BackgroundImageFix" result="effect1_dropShadow_332_45"/>
<feBlend mode="normal" in="SourceGraphic" in2="effect1_dropShadow_332_45" result="shape"/>
</filter>
</defs>
</svg>
